# Object Export From Tinkercad Server 2015

mtllib obj.mtl

o obj_0
v -10.498 		22.503 		5.6
v -10.498 		14.498 		5.6
v -10.5 		11.5 		5.6
v -10.5 		3.5 		5.6
v -10.5 		0.5 		5.6
v -10.5 		-7.5 		5.6
v -10.5 		-10.5 		5.6
v -10.5 		-18.5 		5.6
v -9.35 		27.47 		5.6
v -9.35 		30.036 		5.6
v -10.498 		22.503 		0
v -10.498 		14.498 		0
v -6.953 		26.296 		7
v -7.105 		26.193 		7
v -6.82 		26.418 		7
v -6.71 		26.556 		7
v -10.5 		-7.5 		7
v -10.5 		0.5 		7
v -10.5 		-18.5 		7
v -8.188 		26.475 		7
v -10.5 		-10.5 		7
v -10.5 		3.5 		7
v -10.5 		11.5 		7
v -7.896 		26.446 		7
v 5.923 		29.607 		7
v 6.072 		29.602 		7
v -7.741 		26.454 		7
v 5.956 		30.04 		7
v 4.988 		30.04 		7
v 5.494 		29.607 		7
v -7.602 		26.478 		7
v 4.446 		26.056 		7
v -7.478 		26.518 		7
v -7.368 		26.573 		7
v 2.518 		30.056 		7
v 2.98 		30.056 		7
v 2.775 		29.396 		7
v 2.791 		29.337 		7
v 2.823 		29.221 		7
v -8.144 		26.012 		7
v -7.92 		26 		7
v 2.747 		29.51 		7
v -7.685 		26.012 		7
v 2.718 		29.394 		7
v 2.733 		29.453 		7
v -7.47 		26.048 		7
v 2.669 		29.217 		7
v 2.703 		29.333 		7
v 3.5 		14.5 		7
v 3.5 		14.5 		5.6
v 7.218 		29.54 		7
v 11.5 		14.5 		5.6
v 11.5 		14.5 		7
v 7.024 		29.759 		7
v 6.752 		29.915 		7
v 3.5 		22.5 		5.6
v 6.396 		30.009 		7
v 11.5 		22.5 		5.6
v 11.5 		22.5 		7
v 3.5 		22.5 		7
v 14.5 		11.5 		7
v 14.5 		11.5 		5.6
v 14.5 		3.5 		5.6
v 14.5 		3.5 		7
v 14.5 		22.5 		7
v 14.5 		22.5 		5.6
v 14.5 		14.5 		5.6
v 14.5 		14.5 		7
v 22.5 		11.5 		7
v 22.5 		3.5 		7
v 22.5 		22.5 		7
v 22.5 		14.5 		7
v 6.829 		28.765 		7
v 6.835 		28.884 		7
v 6.829 		29.008 		7
v 6.81 		29.119 		7
v 6.779 		29.217 		7
v 22.5 		3.5 		5.6
v 6.736 		29.302 		7
v 6.681 		29.376 		7
v 6.614 		29.438 		7
v 6.533 		29.491 		7
v 6.438 		29.534 		7
v 22.5 		14.5 		5.6
v 22.5 		11.5 		5.6
v 6.329 		29.566 		7
v 6.207 		29.589 		7
v 22.5 		22.5 		5.6
v 0.5 		-7.5 		7
v 0.5 		-7.5 		5.6
v 0.5 		0.5 		5.6
v 0.5 		0.5 		7
v 0.5 		-18.5 		7
v 0.5 		-18.5 		5.6
v 0.5 		-10.5 		5.6
v 0.5 		-10.5 		7
v 0.5 		3.5 		7
v 7.791 		30.04 		5.6
v -7.278 		26.108 		7
v 7.791 		29.59 		5.6
v 7.366 		28.756 		5.6
v 7.373 		28.908 		5.6
v 7.335 		29.256 		5.6
v 7.218 		29.54 		5.6
v -7.271 		26.643 		5.6
v -7.189 		26.727 		5.6
v -7.123 		26.821 		5.6
v -7.068 		26.927 		5.6
v -7.025 		27.044 		5.6
v -6.993 		27.171 		5.6
v -6.975 		27.307 		5.6
v -6.968 		27.45 		5.6
v 7.024 		29.759 		5.6
v 6.752 		29.915 		5.6
v 6.396 		30.009 		5.6
v -6.62 		26.71 		5.6
v -6.551 		26.88 		5.6
v 6.829 		28.765 		5.6
v 6.835 		28.884 		5.6
v 6.829 		29.008 		5.6
v 6.81 		29.119 		5.6
v 6.779 		29.217 		5.6
v 6.736 		29.302 		5.6
v 6.681 		29.376 		5.6
v 6.614 		29.438 		5.6
v 6.533 		29.491 		5.6
v 6.438 		29.534 		5.6
v 6.329 		29.566 		5.6
v 6.207 		29.589 		5.6
v -6.499 		27.063 		5.6
v -6.469 		27.256 		5.6
v -6.458 		27.458 		5.6
v -7.105 		26.193 		5.6
v -6.953 		26.296 		5.6
v -6.82 		26.418 		5.6
v -6.71 		26.556 		5.6
v 7.196 		28.28 		7
v -8.188 		26.475 		5.6
v -7.896 		26.446 		5.6
v -7.741 		26.454 		5.6
v -7.602 		26.478 		5.6
v 7.255 		28.382 		7
v -7.478 		26.518 		5.6
v -7.368 		26.573 		5.6
v 7.305 		28.494 		7
v 7.343 		28.619 		7
v 7.128 		28.189 		7
v 6.345 		28.181 		7
v 6.453 		28.218 		7
v 6.547 		28.265 		7
v 6.626 		28.321 		7
v 6.692 		28.391 		7
v 6.744 		28.469 		7
v -8.144 		26.012 		5.6
v 6.783 		28.558 		7
v -7.92 		26 		5.6
v 6.812 		28.657 		7
v -7.685 		26.012 		5.6
v 6.684 		27.88 		7
v 6.586 		27.839 		7
v 6.781 		27.927 		7
v 7.05 		28.11 		5.6
v 6.875 		27.98 		7
v 6.586 		27.839 		5.6
v 6.966 		28.041 		7
v 6.225 		28.154 		5.6
v 7.05 		28.11 		7
v 6.225 		28.154 		7
v 0.5 		3.5 		5.6
v 0.5 		11.5 		5.6
v 0.5 		11.5 		7
v 0.5 		14.5 		7
v 0.5 		14.5 		5.6
v 0.5 		22.5 		5.6
v 0.5 		22.5 		7
v 7.072 		26.056 		7
v 7.671 		26.056 		7
v -7.5 		-18.5 		5.6
v -7.5 		-10.5 		5.6
v -7.5 		-7.5 		5.6
v -7.5 		0.5 		5.6
v -7.5 		3.5 		5.6
v -7.5 		11.5 		5.6
v -7.5 		14.5 		5.6
v -7.5 		22.5 		5.6
v 7.196 		28.28 		5.6
v 2.927 		28.892 		7
v -7.5 		0.5 		7
v -7.5 		-7.5 		7
v -7.5 		-10.5 		7
v -7.5 		-18.5 		7
v 2.916 		28.928 		7
v -7.5 		11.5 		7
v -7.5 		3.5 		7
v -7.5 		22.5 		7
v -7.5 		14.5 		7
v 2.839 		29.165 		7
v 2.855 		29.112 		7
v 2.871 		29.061 		7
v 2.887 		29.012 		7
v 2.902 		28.968 		7
v 2.566 		28.892 		7
v 2.578 		28.926 		7
v 2.606 		29.008 		7
v 2.591 		28.965 		7
v 2.65 		29.161 		7
v 2.62 		29.055 		7
v 2.635 		29.106 		7
v 7.072 		26.056 		5.6
v 3.49 		27.289 		7
v 3.927 		26.056 		7
v 7.671 		26.056 		5.6
v 3.329 		27.739 		7
v 2.168 		27.739 		7
v 2.008 		27.289 		7
v 4.988 		26.056 		5.6
v 4.446 		26.056 		5.6
v 4.988 		26.056 		7
v 0.723 		30.04 		7
v 0.723 		29.59 		7
v 5.494 		26.056 		5.6
v 5.494 		26.056 		7
v 0.618 		28.362 		7
v 6.116 		27.703 		5.6
v 0.618 		27.912 		7
v 5.494 		27.703 		5.6
v 1.566 		26.056 		7
v 1.056 		26.056 		7
v 6.116 		27.703 		7
v 5.494 		27.703 		7
v 0.723 		26.056 		7
v 0.723 		26.502 		7
v 5.494 		28.133 		5.6
v -0.84 		29.59 		7
v 5.494 		28.133 		7
v -0.84 		28.362 		7
v -0.84 		27.912 		7
v -1.346 		30.04 		7
v -0.84 		26.502 		7
v -1.346 		26.056 		7
v -2.43 		30.04 		7
v -2.94 		30.04 		7
v 5.956 		30.04 		5.6
v -2.936 		27.703 		7
v 4.988 		30.04 		5.6
v -2.938 		27.758 		7
v -2.94 		27.81 		7
v -2.916 		26.755 		7
v 6.072 		29.602 		5.6
v 5.923 		29.607 		5.6
v 5.494 		29.607 		5.6
v 5.936 		28.133 		5.6
v 6.088 		28.138 		5.6
v -2.932 		27.526 		7
v -2.934 		27.587 		7
v 5.936 		28.133 		7
v 6.088 		28.138 		7
v -2.904 		26.893 		7
v -2.91 		27.03 		7
v -2.896 		26.755 		7
v -2.916 		27.165 		7
v -2.919 		27.224 		7
v -2.921 		27.284 		7
v -2.924 		27.345 		7
v -2.929 		27.465 		7
v -2.927 		27.405 		7
v -2.936 		27.646 		7
v -2.43 		26.056 		7
v -3.049 		26.056 		7
v -4.8 		30.04 		7
v -4.94 		29.354 		7
v -4.932 		28.936 		7
v -4.922 		28.691 		7
v -4.927 		28.816 		7
v -4.95 		29.212 		7
v -4.941 		29.073 		7
v -4.96 		29.354 		7
v -4.908 		26.056 		7
v -4.908 		28.217 		7
v -4.909 		28.323 		7
v -4.912 		28.438 		7
v -4.916 		28.562 		7
v -5.414 		30.04 		7
v -5.414 		26.056 		7
v -6.458 		30.044 		7
v -6.968 		30.044 		7
v -7.271 		26.643 		7
v -7.189 		26.727 		7
v -7.123 		26.821 		7
v -7.068 		26.927 		7
v -7.025 		27.044 		7
v -6.993 		27.171 		7
v -6.975 		27.307 		7
v -6.968 		27.45 		7
v -6.499 		27.063 		7
v -6.469 		27.256 		7
v -6.458 		27.458 		7
v -6.62 		26.71 		7
v -6.551 		26.88 		7
v -8.844 		30.036 		7
v -9.35 		30.036 		7
v -8.844 		27.446 		7
v -8.818 		27.151 		7
v -8.74 		26.905 		7
v -8.611 		26.707 		7
v -9.35 		27.47 		7
v -9.34 		27.255 		7
v -9.309 		27.054 		7
v -9.258 		26.867 		7
v -9.186 		26.694 		7
v -8.426 		26.562 		7
v -9.095 		26.539 		7
v -8.985 		26.402 		7
v -8.855 		26.283 		7
v -8.706 		26.184 		7
v -8.539 		26.104 		7
v -8.35 		26.046 		7
v 13.49 		30.04 		5.6
v 14 		30.04 		5.6
v 13.49 		30.04 		7
v 14 		30.04 		7
v 13.49 		28.362 		5.6
v 13.49 		28.362 		7
v 30 		34 		0
v 13.49 		26.056 		5.6
v 13.49 		27.912 		5.6
v 13.49 		27.912 		7
v 13.49 		26.056 		7
v 14 		26.056 		5.6
v 14 		26.056 		7
v 8.928 		26.056 		5.6
v 8.928 		29.59 		5.6
v 8.928 		26.056 		7
v 8.928 		29.59 		7
v 11.679 		26.056 		5.6
v 11.173 		26.056 		5.6
v 9.434 		26.056 		5.6
v 11.679 		26.056 		7
v 30 		34 		5.6
v 11.173 		26.056 		7
v 9.434 		26.056 		7
v 11.679 		28.362 		5.6
v 11.679 		28.362 		7
v 10.57 		29.59 		5.6
v 9.434 		29.59 		5.6
v 11.679 		27.912 		5.6
v 2.518 		30.056 		5.6
v -7.47 		26.048 		5.6
v 11.679 		27.912 		7
v 9.434 		29.59 		7
v -7.278 		26.108 		5.6
v 10.57 		29.59 		7
v 11.679 		30.04 		5.6
v 11.679 		30.04 		7
v -8.844 		30.036 		5.6
v 10.57 		30.04 		5.6
v 11.173 		30.04 		5.6
v 11.173 		30.04 		7
v 10.57 		30.04 		7
v 7.791 		30.04 		7
v 7.791 		29.59 		7
v 7.366 		28.756 		7
v 7.373 		28.908 		7
v 7.335 		29.256 		7
v 7.255 		28.382 		5.6
v 7.305 		28.494 		5.6
v 7.343 		28.619 		5.6
v -8.844 		27.446 		5.6
v -8.818 		27.151 		5.6
v -8.74 		26.905 		5.6
v -8.611 		26.707 		5.6
v 2.98 		30.056 		5.6
v 7.128 		28.189 		5.6
v 6.345 		28.181 		5.6
v 6.453 		28.218 		5.6
v 6.547 		28.265 		5.6
v 6.626 		28.321 		5.6
v 6.692 		28.391 		5.6
v 6.744 		28.469 		5.6
v 6.783 		28.558 		5.6
v 6.812 		28.657 		5.6
v 6.684 		27.88 		5.6
v 6.781 		27.927 		5.6
v 6.875 		27.98 		5.6
v 6.966 		28.041 		5.6
v -9.34 		27.255 		5.6
v -9.309 		27.054 		5.6
v -9.258 		26.867 		5.6
v -9.186 		26.694 		5.6
v -8.426 		26.562 		5.6
v -9.095 		26.539 		5.6
v -8.985 		26.402 		5.6
v -8.855 		26.283 		5.6
v -8.706 		26.184 		5.6
v -8.539 		26.104 		5.6
v -8.35 		26.046 		5.6
v -2.94 		27.81 		5.6
v -2.936 		27.703 		5.6
v -2.938 		27.758 		5.6
v -2.936 		27.646 		5.6
v -2.916 		26.755 		5.6
v -2.932 		27.526 		5.6
v -2.934 		27.587 		5.6
v -2.927 		27.405 		5.6
v -2.929 		27.465 		5.6
v -2.919 		27.224 		5.6
v -2.921 		27.284 		5.6
v -2.924 		27.345 		5.6
v 2.775 		29.396 		5.6
v 2.669 		29.217 		5.6
v -2.904 		26.893 		5.6
v -2.91 		27.03 		5.6
v -2.916 		27.165 		5.6
v 2.791 		29.337 		5.6
v 2.823 		29.221 		5.6
v 2.703 		29.333 		5.6
v -2.896 		26.755 		5.6
v 2.733 		29.453 		5.6
v 2.718 		29.394 		5.6
v 2.747 		29.51 		5.6
v 2.839 		29.165 		5.6
v 2.578 		28.926 		5.6
v 2.566 		28.892 		5.6
v 2.855 		29.112 		5.6
v -3.049 		26.056 		5.6
v 2.871 		29.061 		5.6
v -2.43 		26.056 		5.6
v 2.887 		29.012 		5.6
v -4.8 		30.04 		5.6
v 2.927 		28.892 		5.6
v 2.902 		28.968 		5.6
v -5.414 		30.04 		5.6
v 2.916 		28.928 		5.6
v -5.414 		26.056 		5.6
v -4.908 		26.056 		5.6
v -4.908 		28.217 		5.6
v 2.606 		29.008 		5.6
v 2.591 		28.965 		5.6
v -4.909 		28.323 		5.6
v -4.912 		28.438 		5.6
v 2.62 		29.055 		5.6
v -26 		34 		5.6
v -26 		34 		0
v -26 		-26 		0
v -26 		-26 		5.6
v 2.635 		29.106 		5.6
v -18.503 		22.503 		5.6
v -18.503 		14.498 		5.6
v -18.5 		-18.5 		5.6
v -18.5 		-10.5 		5.6
v -18.5 		-7.5 		5.6
v -18.5 		0.5 		5.6
v -18.5 		3.5 		5.6
v -18.5 		11.5 		5.6
v 2.65 		29.161 		5.6
v -18.503 		22.503 		0
v -18.503 		14.498 		0
v -18.5 		0.5 		7
v -18.5 		-7.5 		7
v -18.5 		-10.5 		7
v -18.5 		-18.5 		7
v -18.5 		11.5 		7
v -18.5 		3.5 		7
v 3.49 		27.289 		5.6
v 3.927 		26.056 		5.6
v 2.168 		27.739 		5.6
v 3.329 		27.739 		5.6
v 0.723 		26.502 		5.6
v 0.618 		27.912 		5.6
v 2.008 		27.289 		5.6
v 30 		-26 		5.6
v 30 		-26 		0
v 22.503 		0.503 		5.6
v 22.503 		-10.498 		5.6
v 22.503 		-7.503 		5.6
v 22.503 		-18.503 		5.6
v 0.723 		29.59 		5.6
v 0.618 		28.362 		5.6
v 22.503 		0.503 		0
v 22.503 		-7.503 		0
v 22.503 		-10.498 		0
v 22.503 		-18.503 		0
v 0.723 		30.04 		5.6
v 14.498 		0.503 		5.6
v 14.498 		-7.503 		5.6
v 14.498 		-10.498 		5.6
v 14.498 		-18.503 		5.6
v 11.503 		11.503 		5.6
v 11.503 		3.498 		5.6
v 11.5 		0.5 		5.6
v 11.5 		-7.5 		5.6
v 11.5 		-10.5 		5.6
v 11.5 		-18.5 		5.6
v 14.498 		0.503 		0
v 14.498 		-10.498 		0
v 14.498 		-7.503 		0
v 14.498 		-18.503 		0
v 1.566 		26.056 		5.6
v 1.056 		26.056 		5.6
v 11.503 		11.503 		0
v 0.723 		26.056 		5.6
v 11.503 		3.498 		0
v -0.84 		27.912 		5.6
v -0.84 		26.502 		5.6
v -0.84 		29.59 		5.6
v -0.84 		28.362 		5.6
v 11.5 		-7.5 		7
v 11.5 		0.5 		7
v 11.5 		-18.5 		7
v 11.5 		-10.5 		7
v 3.498 		11.503 		5.6
v 3.498 		3.498 		5.6
v 3.5 		-18.5 		5.6
v 3.5 		-10.5 		5.6
v 3.5 		-7.5 		5.6
v 3.5 		0.5 		5.6
v -1.346 		30.04 		5.6
v 3.498 		11.503 		0
v 3.498 		3.498 		0
v -1.346 		26.056 		5.6
v -2.94 		30.04 		5.6
v -2.43 		30.04 		5.6
v 3.5 		0.5 		7
v 3.5 		-7.5 		7
v 3.5 		-10.5 		7
v 3.5 		-18.5 		7
v -4.94 		29.354 		5.6
v -4.916 		28.562 		5.6
v -4.927 		28.816 		5.6
v -4.922 		28.691 		5.6
v -4.932 		28.936 		5.6
v -4.95 		29.212 		5.6
v -4.941 		29.073 		5.6
v -4.96 		29.354 		5.6
v -6.968 		30.044 		5.6
v -6.458 		30.044 		5.6
# 536 vertices

g group_0_15277357

usemtl color_15277357
s 0

f 5 	6 	180
f 6 	7 	179
f 178 	179 	7
f 7 	8 	178
f 445 	178 	8
f 4 	5 	181
f 180 	181 	5
f 183 	184 	2
f 442 	9 	10
f 12 	2 	1
f 12 	1 	11
f 17 	6 	5
f 17 	5 	18
f 19 	8 	7
f 19 	7 	21
f 28 	29 	30
f 28 	30 	25
f 25 	26 	28
f 36 	37 	38
f 192 	187 	36
f 38 	39 	36
f 37 	36 	42
f 42 	36 	35
f 35 	45 	42
f 49 	50 	52
f 49 	52 	53
f 58 	212 	56
f 59 	58 	56
f 59 	56 	60
f 61 	62 	63
f 61 	63 	64
f 65 	66 	67
f 65 	67 	68
f 69 	61 	64
f 69 	64 	70
f 71 	65 	68
f 71 	68 	72
f 63 	484 	78
f 487 	471 	476
f 495 	481 	474
f 476 	482 	487
f 64 	63 	78
f 64 	78 	70
f 82 	83 	127
f 84 	67 	62
f 84 	62 	85
f 69 	85 	62
f 69 	62 	61
f 127 	83 	86
f 68 	67 	84
f 68 	84 	72
f 71 	88 	66
f 71 	66 	65
f 89 	90 	91
f 89 	91 	92
f 93 	94 	95
f 93 	95 	96
f 367 	332 	101
f 98 	100 	361
f 98 	361 	360
f 367 	101 	362
f 101 	332 	102
f 101 	102 	363
f 101 	363 	362
f 141 	143 	368
f 102 	100 	103
f 102 	103 	363
f 103 	100 	104
f 104 	51 	103
f 140 	141 	368
f 108 	368 	107
f 109 	368 	108
f 110 	368 	109
f 111 	368 	110
f 112 	368 	111
f 113 	104 	98
f 54 	51 	104
f 113 	54 	104
f 113 	98 	114
f 339 	115 	98
f 113 	114 	55
f 113 	55 	54
f 57 	55 	115
f 114 	115 	55
f 112 	111 	294
f 434 	117 	116
f 16 	136 	116
f 125 	166 	124
f 123 	124 	166
f 122 	123 	166
f 121 	122 	166
f 120 	121 	166
f 119 	120 	166
f 126 	166 	125
f 127 	166 	126
f 128 	166 	127
f 129 	166 	128
f 117 	434 	130
f 130 	295 	117
f 130 	434 	131
f 119 	118 	73
f 119 	73 	74
f 131 	295 	130
f 131 	434 	132
f 74 	75 	119
f 120 	119 	75
f 132 	297 	131
f 121 	120 	75
f 121 	75 	76
f 285 	297 	132
f 76 	77 	121
f 122 	121 	77
f 123 	122 	77
f 123 	77 	79
f 351 	185 	133
f 79 	80 	123
f 124 	123 	80
f 133 	185 	134
f 136 	135 	434
f 125 	124 	80
f 125 	80 	81
f 134 	13 	14
f 134 	14 	133
f 126 	125 	81
f 126 	81 	82
f 185 	434 	134
f 13 	134 	15
f 135 	15 	134
f 82 	127 	126
f 135 	134 	434
f 128 	127 	86
f 136 	16 	15
f 136 	15 	135
f 86 	87 	128
f 129 	128 	87
f 249 	129 	26
f 143 	144 	368
f 144 	105 	368
f 106 	368 	105
f 107 	368 	106
f 139 	138 	20
f 139 	20 	24
f 24 	27 	139
f 140 	139 	27
f 141 	140 	27
f 141 	27 	31
f 33 	141 	31
f 143 	141 	33
f 144 	143 	33
f 144 	33 	34
f 376 	375 	150
f 41 	40 	156
f 154 	156 	40
f 156 	185 	158
f 156 	158 	43
f 156 	43 	41
f 383 	384 	161
f 97 	169 	170
f 97 	170 	171
f 172 	173 	174
f 172 	174 	175
f 156 	154 	185
f 179 	180 	6
f 181 	182 	4
f 3 	4 	182
f 182 	183 	3
f 392 	1 	393
f 395 	1 	396
f 44 	35 	48
f 45 	35 	44
f 47 	48 	35
f 188 	181 	180
f 188 	180 	189
f 190 	179 	178
f 190 	178 	191
f 193 	183 	182
f 193 	182 	194
f 195 	185 	184
f 195 	184 	196
f 92 	188 	189
f 92 	189 	89
f 96 	190 	191
f 96 	191 	93
f 171 	193 	194
f 171 	194 	97
f 197 	198 	36
f 198 	199 	36
f 199 	200 	36
f 201 	36 	200
f 192 	36 	201
f 187 	213 	36
f 175 	195 	196
f 175 	196 	172
f 35 	206 	47
f 205 	204 	35
f 208 	35 	207
f 207 	35 	204
f 203 	205 	35
f 206 	35 	208
f 202 	203 	35
f 212 	164 	177
f 224 	221 	209
f 221 	56 	209
f 228 	214 	35
f 32 	210 	211
f 177 	176 	212
f 209 	212 	176
f 214 	215 	213
f 213 	210 	32
f 39 	197 	36
f 32 	36 	213
f 202 	35 	214
f 210 	213 	215
f 228 	227 	215
f 214 	228 	215
f 217 	56 	216
f 245 	216 	218
f 245 	218 	29
f 216 	56 	221
f 221 	222 	218
f 221 	218 	216
f 221 	224 	226
f 229 	230 	226
f 229 	226 	224
f 239 	231 	232
f 219 	238 	234
f 219 	234 	220
f 237 	225 	236
f 223 	236 	225
f 221 	226 	230
f 221 	230 	222
f 238 	240 	237
f 237 	236 	238
f 238 	236 	234
f 235 	233 	251
f 239 	237 	240
f 239 	240 	231
f 28 	57 	243
f 115 	243 	57
f 243 	245 	29
f 243 	29 	28
f 242 	247 	241
f 241 	247 	246
f 244 	268 	246
f 251 	233 	250
f 249 	250 	252
f 252 	250 	233
f 252 	253 	249
f 129 	249 	253
f 253 	166 	129
f 118 	119 	166
f 30 	235 	251
f 252 	233 	235
f 252 	235 	256
f 253 	252 	256
f 253 	256 	257
f 257 	168 	253
f 87 	26 	129
f 250 	249 	26
f 250 	26 	25
f 251 	250 	25
f 251 	25 	30
f 261 	259 	268
f 259 	258 	268
f 260 	268 	258
f 261 	268 	262
f 56 	217 	465
f 263 	262 	268
f 32 	465 	217
f 266 	264 	268
f 264 	263 	268
f 267 	268 	244
f 255 	268 	267
f 254 	268 	255
f 241 	246 	268
f 268 	254 	265
f 265 	266 	268
f 248 	269 	260
f 271 	269 	248
f 268 	260 	269
f 270 	271 	248
f 283 	277 	270
f 272 	283 	274
f 271 	270 	277
f 281 	283 	280
f 279 	280 	283
f 282 	283 	281
f 273 	283 	282
f 274 	283 	273
f 276 	283 	272
f 275 	283 	276
f 277 	283 	275
f 283 	284 	279
f 278 	279 	284
f 99 	14 	34
f 288 	16 	289
f 292 	291 	295
f 290 	299 	291
f 295 	296 	292
f 286 	294 	297
f 285 	286 	297
f 296 	297 	294
f 294 	293 	296
f 293 	292 	296
f 16 	288 	15
f 13 	15 	288
f 298 	289 	16
f 288 	287 	13
f 299 	290 	298
f 289 	298 	290
f 295 	291 	299
f 317 	40 	20
f 41 	24 	40
f 27 	24 	43
f 41 	43 	24
f 20 	40 	24
f 287 	34 	14
f 14 	13 	287
f 34 	33 	99
f 46 	99 	33
f 33 	31 	46
f 31 	27 	43
f 43 	46 	31
f 301 	306 	300
f 302 	300 	306
f 306 	307 	302
f 303 	302 	307
f 178 	445 	94
f 307 	308 	303
f 308 	309 	303
f 191 	178 	94
f 191 	94 	93
f 90 	180 	179
f 90 	179 	95
f 304 	303 	309
f 309 	310 	304
f 310 	312 	304
f 305 	304 	312
f 189 	180 	90
f 189 	90 	89
f 312 	313 	305
f 169 	182 	181
f 169 	181 	91
f 92 	91 	181
f 92 	181 	188
f 96 	95 	179
f 96 	179 	190
f 194 	182 	169
f 194 	169 	97
f 173 	184 	183
f 173 	183 	170
f 171 	170 	183
f 171 	183 	193
f 313 	314 	305
f 311 	305 	314
f 311 	314 	315
f 20 	311 	317
f 311 	315 	316
f 316 	317 	311
f 196 	184 	173
f 196 	173 	172
f 319 	318 	320
f 319 	320 	321
f 425 	435 	185
f 185 	174 	425
f 175 	174 	185
f 175 	185 	195
f 318 	322 	323
f 318 	323 	320
f 327 	326 	325
f 327 	325 	328
f 58 	66 	325
f 325 	329 	330
f 325 	330 	328
f 332 	367 	331
f 209 	56 	212
f 332 	331 	333
f 332 	333 	334
f 336 	58 	335
f 337 	331 	58
f 331 	212 	58
f 324 	443 	339
f 335 	338 	336
f 340 	336 	338
f 319 	329 	339
f 331 	337 	341
f 331 	341 	333
f 66 	88 	329
f 88 	339 	329
f 345 	337 	344
f 337 	336 	344
f 319 	321 	330
f 319 	330 	329
f 322 	342 	343
f 322 	343 	323
f 339 	353 	318
f 318 	319 	339
f 335 	325 	346
f 326 	346 	325
f 185 	348 	158
f 327 	349 	346
f 327 	346 	326
f 335 	346 	349
f 335 	349 	338
f 337 	345 	350
f 43 	158 	46
f 348 	46 	158
f 337 	350 	341
f 185 	351 	348
f 100 	332 	334
f 46 	348 	99
f 351 	99 	348
f 345 	344 	352
f 345 	352 	350
f 353 	342 	322
f 322 	318 	353
f 354 	343 	353
f 342 	353 	343
f 14 	99 	351
f 14 	351 	133
f 355 	368 	112
f 355 	10 	301
f 355 	301 	300
f 354 	353 	357
f 354 	357 	358
f 356 	344 	357
f 336 	357 	344
f 368 	300 	302
f 336 	340 	357
f 357 	340 	358
f 368 	302 	303
f 344 	356 	359
f 344 	359 	352
f 357 	353 	339
f 356 	98 	360
f 356 	360 	359
f 100 	334 	361
f 308 	388 	309
f 388 	310 	309
f 103 	364 	363
f 390 	305 	311
f 51 	364 	103
f 20 	390 	311
f 186 	331 	365
f 100 	102 	332
f 312 	392 	313
f 314 	313 	392
f 373 	331 	186
f 366 	331 	367
f 186 	365 	142
f 186 	142 	137
f 365 	331 	366
f 145 	142 	366
f 365 	366 	142
f 366 	367 	146
f 366 	146 	145
f 371 	390 	370
f 370 	138 	369
f 368 	369 	139
f 139 	140 	368
f 368 	355 	300
f 362 	146 	367
f 369 	368 	303
f 373 	147 	167
f 303 	304 	369
f 370 	369 	304
f 186 	137 	147
f 304 	305 	370
f 371 	370 	305
f 339 	442 	347
f 339 	347 	372
f 375 	374 	148
f 375 	148 	149
f 339 	372 	245
f 245 	243 	339
f 243 	115 	339
f 114 	98 	115
f 98 	356 	339
f 104 	100 	98
f 356 	357 	339
f 149 	150 	375
f 355 	442 	10
f 112 	535 	355
f 376 	150 	151
f 378 	151 	152
f 379 	378 	152
f 379 	152 	153
f 347 	35 	372
f 36 	372 	35
f 153 	155 	379
f 321 	320 	323
f 321 	323 	327
f 328 	330 	327
f 321 	327 	330
f 381 	155 	157
f 349 	327 	343
f 323 	343 	327
f 157 	73 	118
f 343 	358 	349
f 338 	349 	340
f 334 	333 	350
f 341 	350 	333
f 224 	209 	229
f 340 	349 	358
f 354 	358 	343
f 350 	359 	334
f 360 	334 	359
f 359 	350 	352
f 360 	361 	334
f 383 	161 	159
f 163 	161 	384
f 51 	54 	80
f 79 	77 	51
f 384 	385 	163
f 165 	163 	385
f 57 	28 	26
f 87 	86 	57
f 26 	87 	57
f 165 	385 	167
f 162 	167 	385
f 162 	373 	167
f 160 	177 	164
f 73 	362 	74
f 166 	253 	168
f 364 	75 	363
f 148 	166 	168
f 76 	75 	364
f 74 	363 	75
f 77 	76 	364
f 364 	51 	77
f 80 	79 	51
f 373 	186 	147
f 81 	80 	54
f 82 	81 	55
f 54 	55 	81
f 86 	83 	57
f 55 	57 	83
f 83 	82 	55
f 377 	378 	376
f 378 	379 	376
f 379 	380 	376
f 375 	376 	380
f 380 	381 	375
f 374 	375 	381
f 381 	118 	374
f 166 	374 	118
f 374 	166 	148
f 377 	376 	151
f 216 	245 	217
f 378 	377 	151
f 380 	379 	155
f 155 	381 	380
f 157 	118 	381
f 409 	414 	38
f 409 	38 	37
f 176 	229 	209
f 414 	39 	38
f 164 	212 	382
f 162 	385 	331
f 164 	382 	159
f 164 	159 	160
f 382 	212 	383
f 212 	331 	385
f 382 	383 	159
f 383 	212 	384
f 409 	37 	42
f 384 	212 	385
f 45 	44 	419
f 162 	331 	373
f 371 	305 	390
f 387 	447 	388
f 9 	442 	386
f 306 	9 	307
f 386 	307 	9
f 386 	447 	387
f 363 	74 	362
f 362 	73 	146
f 308 	307 	387
f 386 	387 	307
f 387 	388 	308
f 148 	160 	149
f 388 	447 	389
f 388 	389 	310
f 159 	161 	150
f 312 	310 	389
f 151 	150 	161
f 161 	163 	151
f 139 	369 	138
f 138 	370 	390
f 138 	390 	20
f 155 	153 	137
f 137 	142 	155
f 155 	145 	157
f 146 	157 	145
f 142 	145 	155
f 157 	146 	73
f 389 	447 	391
f 391 	447 	392
f 389 	391 	312
f 1 	2 	185
f 391 	392 	312
f 153 	152 	167
f 165 	167 	152
f 152 	151 	165
f 167 	147 	153
f 147 	137 	153
f 163 	165 	151
f 150 	149 	159
f 229 	160 	168
f 2 	3 	183
f 314 	392 	393
f 184 	185 	2
f 148 	168 	160
f 159 	149 	160
f 393 	394 	315
f 393 	315 	314
f 229 	176 	160
f 393 	1 	394
f 177 	160 	176
f 394 	395 	316
f 394 	316 	315
f 185 	396 	1
f 222 	230 	218
f 230 	235 	218
f 29 	218 	235
f 30 	29 	235
f 395 	396 	317
f 395 	317 	316
f 394 	1 	395
f 185 	154 	396
f 229 	256 	230
f 235 	230 	256
f 154 	40 	317
f 396 	154 	317
f 418 	42 	45
f 257 	256 	229
f 168 	257 	229
f 419 	44 	48
f 424 	198 	197
f 199 	198 	426
f 426 	200 	199
f 263 	406 	262
f 417 	248 	260
f 437 	441 	204
f 411 	417 	260
f 411 	260 	258
f 406 	261 	262
f 408 	263 	264
f 266 	408 	264
f 213 	187 	467
f 422 	203 	202
f 198 	424 	426
f 397 	429 	399
f 200 	428 	201
f 397 	399 	247
f 437 	204 	205
f 400 	398 	429
f 399 	429 	398
f 401 	411 	429
f 205 	203 	422
f 207 	204 	441
f 398 	400 	267
f 441 	446 	208
f 441 	208 	207
f 403 	429 	402
f 400 	429 	403
f 446 	206 	208
f 202 	423 	422
f 265 	254 	402
f 400 	403 	267
f 417 	411 	401
f 405 	429 	404
f 402 	429 	405
f 266 	265 	404
f 405 	404 	265
f 202 	214 	423
f 408 	429 	407
f 407 	429 	406
f 404 	429 	408
f 407 	406 	263
f 412 	429 	411
f 413 	429 	412
f 406 	429 	413
f 409 	419 	414
f 414 	416 	415
f 258 	259 	411
f 412 	411 	259
f 414 	415 	39
f 415 	410 	421
f 417 	401 	248
f 421 	197 	415
f 47 	206 	410
f 259 	261 	412
f 413 	412 	261
f 410 	415 	416
f 47 	410 	48
f 416 	48 	410
f 419 	409 	418
f 416 	414 	419
f 406 	413 	261
f 45 	419 	418
f 408 	407 	263
f 409 	420 	418
f 404 	408 	266
f 420 	409 	42
f 402 	405 	265
f 418 	420 	42
f 416 	419 	48
f 248 	401 	429
f 437 	428 	441
f 423 	430 	422
f 39 	415 	197
f 271 	425 	269
f 438 	431 	437
f 421 	455 	424
f 421 	424 	197
f 424 	446 	426
f 425 	427 	268
f 425 	268 	269
f 427 	520 	517
f 426 	441 	428
f 427 	522 	268
f 200 	426 	428
f 248 	429 	270
f 428 	437 	431
f 192 	433 	187
f 429 	521 	442
f 535 	536 	442
f 521 	522 	442
f 429 	432 	270
f 428 	431 	201
f 431 	438 	433
f 430 	187 	433
f 270 	432 	283
f 192 	201 	433
f 431 	433 	201
f 432 	132 	434
f 116 	136 	434
f 422 	433 	438
f 455 	421 	410
f 432 	434 	284
f 432 	284 	283
f 434 	185 	435
f 435 	278 	284
f 435 	284 	434
f 436 	435 	425
f 437 	205 	438
f 435 	436 	279
f 435 	279 	278
f 436 	425 	439
f 436 	439 	280
f 436 	280 	279
f 438 	205 	422
f 527 	532 	425
f 439 	425 	440
f 22 	4 	3
f 22 	3 	23
f 442 	443 	444
f 442 	444 	445
f 441 	426 	446
f 450 	451 	445
f 451 	452 	445
f 452 	453 	445
f 442 	445 	453
f 453 	454 	442
f 448 	442 	454
f 447 	442 	448
f 449 	450 	445
f 446 	424 	455
f 324 	11 	443
f 410 	206 	455
f 444 	443 	457
f 457 	12 	444
f 456 	457 	443
f 446 	455 	206
f 35 	347 	499
f 447 	456 	11
f 456 	447 	448
f 456 	448 	457
f 458 	452 	451
f 458 	451 	459
f 466 	423 	214
f 460 	450 	449
f 460 	449 	461
f 462 	454 	453
f 462 	453 	463
f 372 	217 	245
f 18 	458 	459
f 18 	459 	17
f 21 	460 	461
f 21 	461 	19
f 23 	462 	463
f 23 	463 	22
f 36 	32 	372
f 217 	372 	32
f 464 	470 	465
f 456 	443 	11
f 498 	174 	56
f 465 	211 	464
f 210 	464 	211
f 8 	449 	445
f 461 	449 	8
f 461 	8 	19
f 32 	211 	465
f 6 	451 	450
f 6 	450 	7
f 459 	451 	6
f 459 	6 	17
f 4 	453 	452
f 4 	452 	5
f 215 	464 	210
f 18 	5 	452
f 18 	452 	458
f 21 	7 	450
f 21 	450 	460
f 463 	453 	4
f 463 	4 	22
f 447 	386 	442
f 1 	392 	447
f 467 	430 	466
f 433 	422 	430
f 466 	430 	423
f 2 	448 	454
f 2 	454 	3
f 467 	466 	214
f 467 	214 	213
f 442 	339 	443
f 447 	11 	1
f 2 	12 	457
f 2 	457 	448
f 430 	467 	187
f 23 	3 	454
f 23 	454 	462
f 10 	9 	306
f 499 	347 	468
f 10 	306 	301
f 504 	468 	469
f 498 	465 	470
f 472 	324 	471
f 471 	324 	339
f 470 	464 	215
f 470 	215 	227
f 88 	84 	339
f 84 	85 	339
f 85 	78 	339
f 473 	471 	78
f 485 	474 	475
f 475 	471 	473
f 474 	471 	475
f 476 	471 	474
f 339 	78 	471
f 478 	469 	347
f 469 	468 	347
f 496 	480 	481
f 496 	481 	495
f 35 	499 	228
f 472 	482 	481
f 472 	481 	480
f 472 	480 	479
f 494 	500 	479
f 472 	479 	324
f 477 	478 	347
f 483 	477 	347
f 477 	483 	219
f 477 	219 	220
f 473 	494 	479
f 475 	480 	496
f 475 	496 	485
f 469 	478 	223
f 469 	223 	225
f 482 	476 	474
f 482 	474 	481
f 480 	475 	473
f 480 	473 	479
f 70 	78 	85
f 70 	85 	69
f 506 	478 	505
f 72 	84 	88
f 72 	88 	71
f 62 	67 	488
f 473 	78 	484
f 58 	52 	67
f 67 	66 	58
f 329 	325 	66
f 220 	234 	477
f 485 	486 	474
f 336 	337 	58
f 52 	488 	67
f 488 	489 	62
f 492 	493 	486
f 487 	486 	493
f 471 	487 	493
f 489 	490 	484
f 484 	63 	489
f 63 	62 	489
f 490 	491 	485
f 325 	335 	58
f 485 	484 	490
f 491 	492 	485
f 486 	485 	492
f 232 	468 	504
f 232 	504 	239
f 444 	497 	472
f 499 	174 	498
f 501 	174 	499
f 501 	520 	174
f 498 	227 	228
f 498 	228 	499
f 12 	519 	444
f 497 	444 	495
f 482 	472 	497
f 494 	496 	502
f 502 	500 	494
f 324 	479 	500
f 468 	501 	499
f 471 	445 	472
f 486 	495 	474
f 484 	494 	473
f 227 	498 	470
f 487 	482 	497
f 232 	231 	501
f 232 	501 	468
f 495 	486 	487
f 495 	487 	497
f 469 	503 	504
f 494 	484 	485
f 494 	485 	496
f 503 	469 	237
f 225 	237 	469
f 488 	518 	500
f 477 	505 	478
f 502 	489 	488
f 502 	488 	500
f 505 	477 	234
f 507 	491 	490
f 507 	490 	508
f 509 	493 	492
f 509 	492 	510
f 53 	52 	58
f 53 	58 	59
f 219 	483 	238
f 478 	506 	236
f 478 	236 	223
f 465 	498 	56
f 56 	174 	50
f 504 	503 	237
f 504 	237 	239
f 515 	516 	91
f 516 	512 	91
f 169 	91 	512
f 170 	169 	512
f 236 	506 	505
f 236 	505 	234
f 483 	347 	442
f 511 	170 	512
f 50 	173 	511
f 174 	173 	50
f 170 	511 	173
f 91 	90 	515
f 514 	515 	90
f 90 	95 	514
f 513 	514 	95
f 95 	94 	513
f 445 	513 	94
f 483 	517 	238
f 11 	324 	518
f 519 	496 	444
f 519 	12 	518
f 12 	11 	518
f 500 	518 	324
f 425 	174 	427
f 517 	520 	240
f 517 	240 	238
f 520 	427 	174
f 520 	501 	240
f 231 	240 	501
f 518 	511 	512
f 518 	512 	519
f 522 	517 	442
f 517 	483 	442
f 523 	516 	515
f 523 	515 	524
f 241 	522 	521
f 241 	521 	242
f 525 	514 	513
f 525 	513 	526
f 60 	56 	50
f 60 	50 	49
f 521 	429 	397
f 508 	523 	524
f 508 	524 	507
f 510 	525 	526
f 510 	526 	509
f 59 	60 	49
f 59 	49 	53
f 521 	397 	242
f 522 	427 	517
f 502 	496 	519
f 241 	268 	522
f 495 	444 	496
f 247 	242 	397
f 398 	267 	244
f 445 	471 	513
f 493 	513 	471
f 399 	398 	244
f 399 	244 	246
f 444 	472 	445
f 247 	399 	246
f 526 	513 	493
f 526 	493 	509
f 491 	515 	514
f 491 	514 	492
f 524 	515 	491
f 524 	491 	507
f 52 	50 	511
f 52 	511 	488
f 516 	490 	512
f 489 	512 	490
f 511 	518 	488
f 519 	512 	502
f 489 	502 	512
f 508 	490 	516
f 508 	516 	523
f 510 	492 	514
f 510 	514 	525
f 254 	255 	402
f 403 	402 	255
f 439 	440 	281
f 439 	281 	280
f 440 	425 	528
f 267 	403 	255
f 527 	425 	271
f 440 	528 	282
f 440 	282 	281
f 530 	425 	529
f 528 	425 	530
f 530 	529 	274
f 530 	274 	273
f 529 	425 	531
f 529 	531 	272
f 529 	272 	274
f 532 	527 	534
f 534 	527 	271
f 528 	530 	273
f 528 	273 	282
f 533 	425 	532
f 531 	425 	533
f 533 	532 	275
f 533 	275 	276
f 271 	277 	534
f 531 	533 	276
f 531 	276 	272
f 277 	275 	534
f 532 	534 	275
f 442 	355 	535
f 112 	294 	535
f 536 	132 	432
f 432 	429 	442
f 536 	285 	132
f 536 	432 	442
f 536 	535 	286
f 536 	286 	285
f 105 	144 	34
f 105 	34 	287
f 287 	288 	105
f 106 	105 	288
f 107 	106 	288
f 107 	288 	289
f 289 	290 	107
f 108 	107 	290
f 109 	108 	290
f 109 	290 	291
f 291 	292 	109
f 110 	109 	292
f 111 	110 	292
f 111 	292 	293
f 294 	111 	293
f 286 	535 	294
f 116 	298 	16
f 298 	116 	299
f 117 	299 	116
f 295 	299 	117
f 131 	296 	295
f 297 	296 	131
# 1084 faces

 #end of obj_0

